<svg xmlns="http://www.w3.org/2000/svg" viewBox="0 0 32 32" width="32" height="32">
  <defs>
    <linearGradient id="grad" x1="0%" y1="0%" x2="100%" y2="100%">
      <stop offset="0%" style="stop-color:#2563eb;stop-opacity:1" />
      <stop offset="100%" style="stop-color:#9333ea;stop-opacity:1" />
    </linearGradient>
  </defs>
  <rect width="32" height="32" rx="6" fill="url(#grad)"/>
  <!-- Official Lucide Wallet icon paths - exactly as used by lucide-react -->
  <g fill="none" stroke="white" stroke-width="1.7" stroke-linecap="round" stroke-linejoin="round" transform="translate(4, 4)">
    <path d="M19 7H6a2 2 0 0 0-2 2v10a2 2 0 0 0 2 2h13a2 2 0 0 0 2-2V9a2 2 0 0 0-2-2Z"/>
    <path d="M16 21V5a2 2 0 0 0-2-2H6a2 2 0 0 0-2 2v16"/>
  </g>
</svg>