<svg xmlns="http://www.w3.org/2000/svg" viewBox="0 0 192 192" width="192" height="192">
  <defs>
    <linearGradient id="grad192" x1="0%" y1="0%" x2="100%" y2="100%">
      <stop offset="0%" style="stop-color:#2563eb;stop-opacity:1" />
      <stop offset="100%" style="stop-color:#9333ea;stop-opacity:1" />
    </linearGradient>
  </defs>
  <rect width="192" height="192" rx="36" fill="url(#grad192)"/>
  <!-- Exact Lucide Wallet icon scaled for 192x192 -->
  <g fill="none" stroke="white" stroke-width="11" stroke-linecap="round" stroke-linejoin="round" transform="translate(36, 36) scale(5, 5)">
    <path d="M19 7H6a2 2 0 0 0-2 2v10a2 2 0 0 0 2 2h13a2 2 0 0 0 2-2V9a2 2 0 0 0-2-2z"/>
    <path d="M16 21V5a2 2 0 0 0-2-2H6a2 2 0 0 0-2 2v16"/>
    <circle cx="16" cy="13" r="1" fill="white"/>
  </g>
</svg>