<svg xmlns="http://www.w3.org/2000/svg" viewBox="0 0 512 512" width="512" height="512">
  <defs>
    <linearGradient id="grad512" x1="0%" y1="0%" x2="100%" y2="100%">
      <stop offset="0%" style="stop-color:#2563eb;stop-opacity:1" />
      <stop offset="100%" style="stop-color:#9333ea;stop-opacity:1" />
    </linearGradient>
  </defs>
  <rect width="512" height="512" rx="96" fill="url(#grad512)"/>
  <!-- Exact Lucide Wallet icon scaled for 512x512 -->
  <g fill="none" stroke="white" stroke-width="28" stroke-linecap="round" stroke-linejoin="round" transform="translate(96, 96) scale(13.33, 13.33)">
    <path d="M19 7H6a2 2 0 0 0-2 2v10a2 2 0 0 0 2 2h13a2 2 0 0 0 2-2V9a2 2 0 0 0-2-2z"/>
    <path d="M16 21V5a2 2 0 0 0-2-2H6a2 2 0 0 0-2 2v16"/>
    <circle cx="16" cy="13" r="1" fill="white"/>
  </g>
</svg>p://www.w3.org/2000/svg" viewBox="0 0 512 512" width="512" height="512">
  <defs>
    <linearGradient id="grad512" x1="0%" y1="0%" x2="100%" y2="100%">
      <stop offset="0%" style="stop-color:#2563eb;stop-opacity:1" />
      <stop offset="100%" style="stop-color:#9333ea;stop-opacity:1" />
    </linearGradient>
  </defs>
  <rect width="512" height="512" rx="96" fill="url(#grad512)"/>
  <!-- Wallet icon from Lucide scaled for 512x512 -->
  <g fill="white" stroke="white" stroke-width="24" stroke-linecap="round" stroke-linejoin="round" transform="translate(85, 85) scale(10.5, 10.5)">
    <path d="M8 11h16c1.1 0 2 .9 2 2v8c0 1.1-.9 2-2 2H8c-1.1 0-2-.9-2-2v-8c0-1.1.9-2 2-2z"/>
    <path d="M6 13v8c0 1.1.9 2 2 2h16c1.1 0 2-.9 2-2v-1.5H8c-1.1 0-2-.9-2-2V13z"/>
    <circle cx="20" cy="17" r="1"/>
  </g>
</svg>